<svg viewBox="0 0 76 76" xmlns="http://www.w3.org/2000/svg" fill="#81b3d2"><path d="M71.1 49.7h-66C2.8 49.7 1 51.6 1 54v3.5c0 2.4 1.9 4.3 4.1 4.3H6v1.1C6 68.4 10.3 73 15.6 73h44.7c5.3 0 9.6-4.5 9.6-10.1v-1.1h.9c2.3 0 4.1-1.9 4.1-4.3V54c.3-2.3-1.6-4.3-3.8-4.3zm-3.9 13.2c0 3.9-3 7-6.7 7H15.6c-3.7 0-6.7-3.2-6.7-7v-1.1h58.2l.1 1.1zm5.1-5.4c0 .7-.6 1.3-1.2 1.3H5c-.7 0-1.2-.6-1.2-1.3V54c0-.7.6-1.3 1.2-1.3h66c.7 0 1.2.6 1.2 1.3.1 0 .1 3.5.1 3.5z"/><path d="m16.6 41.4 5.4 4.1 5.3-4.1 5.3 4.1 5.3-4.1 5.4 4.1 5.3-4.1 5.3 4.1 5.4-4.1 5.3 4.1 6.2-4.7-1.7-2.5-4.5 3.4-5.3-4.1-5.4 4.1-5.3-4.1-5.3 4.1-5.4-4.1-5.3 4.1-5.3-4.1-5.3 4.1-5.4-4.1-5.3 4.1-4.5-3.4-1.7 2.5 6.2 4.7 5.3-4.1z"/><path d="M9 34.5h61c0-.6.1-1.2.1-1.9v-1.2C69.4 15.7 55.3 3 38.1 3 20.7 3 6.7 15.7 6 31.5v1.2c0 .6 0 1.2.1 1.8H9zM38.1 6c15.6 0 28.5 11.3 29.1 25.5H9C9.6 17.4 22.5 6 38.1 6z"/><path d="M38.1 20.3c1.1 0 1.9-.9 1.9-2s-.9-2-1.9-2c-1.1 0-1.9.9-1.9 2s.8 2 1.9 2z"/><path d="M30.3 15.2c1.1 0 1.9-.9 1.9-2s-.9-2-1.9-2-1.9.9-1.9 2 .8 2 1.9 2z"/><path d="M45.8 15.2c1.1 0 1.9-.9 1.9-2s-.9-2-1.9-2c-1.1 0-1.9.9-1.9 2s.9 2 1.9 2z"/></svg>
