<svg viewBox="0 0 76 76" xmlns="http://www.w3.org/2000/svg" fill="#81b3d2"><path d="M30.1 67h16.1V43.2H30.1V67zM33 46.1h10.1v18H33v-18z"/><path d="m73.4 41.3 2.1-2.1-9.9-9.9V2h-14v13.6L37.9 2 .5 39.2l2.1 2.1 7.8-7.8v37.6h-4V74h64.2v-2.9h-5.1V33.5l7.9 7.8zM62.5 71.1H13.4V30.5L37.9 6.1l24.6 24.4v40.6zm0-44.7-7.9-7.9V4.9h7.9v21.5z"/><path d="M30.3 29.1c0 4.3 3.5 7.7 7.7 7.7 4.3 0 7.8-3.5 7.8-7.7 0-4.3-3.5-7.7-7.8-7.7a7.7 7.7 0 0 0-7.7 7.7zm7.9-5c2.7 0 5 2.2 5 4.9s-2.2 4.9-5 4.9c-2.7 0-5-2.2-5-4.9s2.1-4.9 5-4.9z"/><path d="M20.5 43.2h-3v3.9h3v-3.9z"/><path d="M26.4 43.2h-3v3.9h3v-3.9z"/><path d="M20.5 49.2h-3v3.9h3v-3.9z"/><path d="M26.4 49.2h-3v3.9h3v-3.9z"/><path d="M52.5 43.2h-3v3.9h3v-3.9z"/><path d="M58.4 43.2h-3v3.9h3v-3.9z"/><path d="M52.5 49.2h-3v3.9h3v-3.9z"/><path d="M58.4 49.2h-3v3.9h3v-3.9z"/></svg>
